<svg width="295" height="164" viewBox="0 0 295 164" fill="none" xmlns="http://www.w3.org/2000/svg">
<g clip-path="url(#clip0_52_18)">
<circle cx="253.482" cy="81.6932" r="38.5" transform="rotate(4.98941 253.482 81.6932)" fill="#6DCBD4"/>
<ellipse cx="151.707" cy="40.1844" rx="18.5" ry="19" transform="rotate(4.98941 151.707 40.1844)" fill="#874299"/>
<circle cx="227.364" cy="18.6829" r="15" transform="rotate(4.98941 227.364 18.6829)" fill="#C05AA2"/>
<circle cx="224.023" cy="97.1898" r="37" transform="rotate(4.98941 224.023 97.1898)" stroke="white" stroke-width="3"/>
<circle cx="144.789" cy="67.6869" r="28.5" transform="rotate(4.98941 144.789 67.6869)" stroke="white" stroke-width="3"/>
<circle cx="205.38" cy="23.2884" r="20" transform="rotate(4.98941 205.38 23.2884)" stroke="white" stroke-width="3"/>
<line x1="172.606" y1="78.2218" x2="188.835" y2="86.2215" stroke="white" stroke-width="3"/>
<line x1="210.331" y1="43.8483" x2="215.002" y2="61.3283" stroke="white" stroke-width="3"/>
<path d="M199.794 81.5232C199.794 81.5232 192.286 89.7952 195.187 103.205" stroke="white" stroke-width="2" stroke-linecap="round"/>
<path d="M208.209 8.62845C208.209 8.62845 203.239 6.82462 197.7 10.3627" stroke="white" stroke-width="2" stroke-linecap="round"/>
<path d="M196.771 109.007C196.771 109.007 197.79 114.131 203.337 118.19" stroke="white" stroke-width="2" stroke-linecap="round"/>
<path d="M123.295 60.2581C123.295 60.2581 121.21 63.4569 122.199 68.3275" stroke="white" stroke-width="2" stroke-linecap="round"/>
<path d="M12.684 137.341C10.92 137.341 9.303 137.026 7.833 136.396C6.363 135.752 5.18 134.807 4.284 133.561C3.388 132.315 2.926 130.775 2.898 128.941H6.09C6.09 130.173 6.391 131.188 6.993 131.986C7.595 132.77 8.393 133.358 9.387 133.75C10.381 134.128 11.466 134.317 12.642 134.317C13.916 134.317 15.022 134.114 15.96 133.708C16.898 133.302 17.619 132.77 18.123 132.112C18.641 131.44 18.9 130.705 18.9 129.907C18.9 128.787 18.557 127.884 17.871 127.198C17.185 126.498 16.17 125.931 14.826 125.497L10.164 123.859C7.98 123.075 6.328 122.179 5.208 121.171C4.088 120.163 3.528 118.749 3.528 116.929C3.528 114.885 4.312 113.219 5.88 111.931C7.462 110.643 9.702 109.999 12.6 109.999C15.288 109.999 17.388 110.622 18.9 111.868C20.412 113.1 21.28 114.759 21.504 116.845H18.27C18.06 115.627 17.486 114.682 16.548 114.01C15.624 113.324 14.308 112.981 12.6 112.981C10.864 112.981 9.513 113.366 8.547 114.136C7.581 114.906 7.098 115.879 7.098 117.055C7.098 118.021 7.399 118.791 8.001 119.365C8.617 119.925 9.576 120.429 10.878 120.877L16.338 122.767C18.228 123.397 19.719 124.279 20.811 125.413C21.917 126.547 22.47 128.017 22.47 129.823C22.47 131.223 22.092 132.49 21.336 133.624C20.594 134.758 19.495 135.661 18.039 136.333C16.583 137.005 14.798 137.341 12.684 137.341ZM36.6867 137.341C35.0767 137.341 33.5717 136.907 32.1717 136.039C30.7857 135.171 29.6657 133.946 28.8117 132.364C27.9577 130.782 27.5307 128.913 27.5307 126.757C27.5307 124.545 27.9577 122.655 28.8117 121.087C29.6657 119.519 30.7857 118.322 32.1717 117.496C33.5717 116.67 35.0767 116.257 36.6867 116.257C37.8207 116.257 38.8357 116.432 39.7317 116.782C40.6417 117.118 41.4327 117.587 42.1047 118.189C42.7767 118.791 43.3297 119.477 43.7637 120.247C44.2117 121.003 44.5407 121.801 44.7507 122.641L41.3907 122.935C41.0407 121.773 40.4527 120.856 39.6267 120.184C38.8147 119.498 37.8207 119.155 36.6447 119.155C35.6507 119.155 34.7127 119.442 33.8307 120.016C32.9627 120.576 32.2557 121.423 31.7097 122.557C31.1637 123.677 30.8907 125.077 30.8907 126.757C30.8907 128.311 31.1357 129.662 31.6257 130.81C32.1297 131.944 32.8157 132.826 33.6837 133.456C34.5517 134.086 35.5387 134.401 36.6447 134.401C38.1987 134.401 39.3747 134.023 40.1727 133.267C40.9847 132.497 41.3907 131.433 41.3907 130.075H44.7507C44.7507 131.475 44.4217 132.721 43.7637 133.813C43.1057 134.905 42.1677 135.766 40.9497 136.396C39.7457 137.026 38.3247 137.341 36.6867 137.341ZM53.1349 112.015C52.4629 112.015 51.9309 111.826 51.5389 111.448C51.1469 111.056 50.9509 110.545 50.9509 109.915C50.9509 109.299 51.1469 108.809 51.5389 108.445C51.9309 108.081 52.4629 107.899 53.1349 107.899C53.8069 107.899 54.3389 108.081 54.7309 108.445C55.1229 108.809 55.3189 109.299 55.3189 109.915C55.3189 110.545 55.1229 111.056 54.7309 111.448C54.3389 111.826 53.8069 112.015 53.1349 112.015ZM51.4969 136.837V116.719H54.7729V136.837H51.4969ZM70.7687 137.341C69.0327 137.341 67.4787 136.9 66.1067 136.018C64.7487 135.122 63.6707 133.883 62.8727 132.301C62.0887 130.719 61.6967 128.899 61.6967 126.841C61.6967 124.643 62.0887 122.753 62.8727 121.171C63.6567 119.589 64.7277 118.378 66.0857 117.538C67.4577 116.684 69.0187 116.257 70.7687 116.257C72.2947 116.257 73.5967 116.565 74.6747 117.181C75.7527 117.797 76.6207 118.63 77.2787 119.68C77.9367 120.73 78.3917 121.92 78.6437 123.25C78.9097 124.566 78.9867 125.931 78.8747 127.345H64.3427V125.329H76.7117L75.7457 125.959C75.7877 125.133 75.7387 124.307 75.5987 123.481C75.4727 122.655 75.2277 121.899 74.8637 121.213C74.4997 120.513 73.9887 119.953 73.3307 119.533C72.6727 119.113 71.8327 118.903 70.8107 118.903C69.5227 118.903 68.4447 119.232 67.5767 119.89C66.7087 120.548 66.0577 121.416 65.6237 122.494C65.1897 123.558 64.9727 124.713 64.9727 125.959V127.303C64.9727 128.703 65.1827 129.956 65.6027 131.062C66.0367 132.168 66.6807 133.043 67.5347 133.687C68.3887 134.331 69.4667 134.653 70.7687 134.653C72.0707 134.653 73.1417 134.338 73.9817 133.708C74.8217 133.078 75.3327 132.147 75.5147 130.915H78.9167C78.7067 132.245 78.2307 133.393 77.4887 134.359C76.7467 135.311 75.8017 136.046 74.6537 136.564C73.5057 137.082 72.2107 137.341 70.7687 137.341ZM99.6509 136.837V125.035C99.6509 123.117 99.1889 121.661 98.2649 120.667C97.3549 119.659 96.1089 119.155 94.5269 119.155C93.3229 119.155 92.2799 119.484 91.3979 120.142C90.5159 120.8 89.8369 121.745 89.3609 122.977C88.8849 124.195 88.6469 125.651 88.6469 127.345H87.3869C87.3869 125.007 87.6949 123.012 88.3109 121.36C88.9269 119.708 89.8229 118.448 90.9989 117.58C92.1889 116.698 93.6309 116.257 95.3249 116.257C96.9069 116.257 98.2579 116.614 99.3779 117.328C100.512 118.028 101.38 119.036 101.982 120.352C102.584 121.668 102.885 123.229 102.885 125.035V136.837H99.6509ZM85.3709 136.837V116.761H88.1849L88.6469 121.381V136.837H85.3709ZM119.875 137.341C117.551 137.341 115.549 136.76 113.869 135.598C112.189 134.422 110.894 132.798 109.984 130.726C109.074 128.64 108.619 126.225 108.619 123.481C108.619 120.555 109.109 118.091 110.089 116.089C111.083 114.087 112.427 112.575 114.121 111.553C115.829 110.517 117.747 109.999 119.875 109.999C122.689 109.999 124.95 110.706 126.658 112.12C128.38 113.52 129.563 115.347 130.207 117.601L126.679 118.315C126.133 116.677 125.258 115.375 124.054 114.409C122.864 113.429 121.471 112.939 119.875 112.939C118.489 112.939 117.208 113.338 116.032 114.136C114.87 114.92 113.932 116.096 113.218 117.664C112.504 119.232 112.147 121.171 112.147 123.481C112.147 125.581 112.427 127.45 112.987 129.088C113.561 130.726 114.415 132.014 115.549 132.952C116.697 133.89 118.139 134.359 119.875 134.359C121.961 134.359 123.613 133.799 124.831 132.679C126.063 131.559 126.679 130.089 126.679 128.269H130.249C130.249 130.159 129.815 131.783 128.947 133.141C128.079 134.485 126.861 135.521 125.293 136.249C123.739 136.977 121.933 137.341 119.875 137.341ZM138.324 112.015C137.652 112.015 137.12 111.826 136.728 111.448C136.336 111.056 136.14 110.545 136.14 109.915C136.14 109.299 136.336 108.809 136.728 108.445C137.12 108.081 137.652 107.899 138.324 107.899C138.996 107.899 139.528 108.081 139.92 108.445C140.312 108.809 140.508 109.299 140.508 109.915C140.508 110.545 140.312 111.056 139.92 111.448C139.528 111.826 138.996 112.015 138.324 112.015ZM136.686 136.837V116.719H139.962V136.837H136.686ZM155.16 137.341C154.068 137.341 153.088 137.131 152.22 136.711C151.352 136.291 150.666 135.661 150.162 134.821C149.658 133.981 149.406 132.931 149.406 131.671V111.175H152.64V131.587C152.64 133.659 153.606 134.695 155.538 134.695C156.112 134.695 156.665 134.632 157.197 134.506C157.743 134.38 158.352 134.191 159.024 133.939L159.486 136.291C158.772 136.599 158.058 136.851 157.344 137.047C156.644 137.243 155.916 137.341 155.16 137.341ZM146.172 119.029V116.761H158.982V119.029H146.172ZM161.459 116.761H165.113L171.665 133.981H170.909L175.991 116.761H179.351L171.791 140.869C171.161 142.885 170.321 144.439 169.271 145.531C168.221 146.623 166.877 147.169 165.239 147.169C164.357 147.169 163.517 147.043 162.719 146.791C161.935 146.539 161.123 146.175 160.283 145.699V142.675C161.025 143.263 161.739 143.683 162.425 143.935C163.125 144.187 163.853 144.313 164.609 144.313C165.449 144.313 166.149 144.047 166.709 143.515C167.283 142.983 167.759 142.297 168.137 141.457C168.515 140.631 168.837 139.763 169.103 138.853L169.691 136.837L161.459 116.761Z" fill="white"/>
<path d="M1.8 159V147.696H8.766V148.902H3.204V152.7H8.442V153.906H3.204V157.776H8.766V159H1.8ZM10.9894 159L14.9674 153.384L10.9534 147.696H12.6454L15.9034 152.304L18.8914 147.696H20.6014L16.6774 153.366L20.7454 159H19.0174L15.7414 154.482L12.6814 159H10.9894ZM23.4383 159V147.696H27.0743C28.3163 147.696 29.2643 148.011 29.9183 148.641C30.5783 149.265 30.9082 150.114 30.9082 151.188C30.9082 152.25 30.5783 153.093 29.9183 153.717C29.2643 154.335 28.3163 154.644 27.0743 154.644H24.8603V159H23.4383ZM24.8603 153.42H27.0743C27.8603 153.42 28.4543 153.219 28.8563 152.817C29.2643 152.415 29.4683 151.872 29.4683 151.188C29.4683 150.492 29.2643 149.937 28.8563 149.523C28.4543 149.109 27.8603 148.902 27.0743 148.902H24.8603V153.42ZM34.845 147.696V157.776H39.885V159H33.441V147.696H34.845ZM45.857 159.216C44.921 159.216 44.084 159 43.346 158.568C42.608 158.136 42.026 157.488 41.6 156.624C41.174 155.754 40.961 154.668 40.961 153.366C40.961 152.046 41.174 150.954 41.6 150.09C42.026 149.22 42.608 148.572 43.346 148.146C44.084 147.714 44.921 147.498 45.857 147.498C46.793 147.498 47.63 147.714 48.368 148.146C49.106 148.578 49.688 149.229 50.114 150.099C50.54 150.969 50.753 152.058 50.753 153.366C50.753 154.68 50.54 155.772 50.114 156.642C49.688 157.506 49.106 158.151 48.368 158.577C47.63 159.003 46.793 159.216 45.857 159.216ZM45.857 157.92C46.919 157.92 47.756 157.533 48.368 156.759C48.986 155.985 49.295 154.848 49.295 153.348C49.295 151.878 48.986 150.747 48.368 149.955C47.756 149.157 46.919 148.758 45.857 148.758C44.807 148.758 43.97 149.157 43.346 149.955C42.728 150.753 42.419 151.89 42.419 153.366C42.419 154.86 42.728 155.994 43.346 156.768C43.97 157.536 44.807 157.92 45.857 157.92ZM53.4801 159V147.696H57.4221C58.7121 147.696 59.6871 148.005 60.3471 148.623C61.0131 149.235 61.3461 150.042 61.3461 151.044C61.3461 152.034 61.0131 152.838 60.3471 153.456C59.6871 154.068 58.7121 154.374 57.4221 154.374H54.8841V159H53.4801ZM59.8161 159L56.5761 153.87H58.1061L61.6341 159H59.8161ZM54.8841 153.384H57.3141C58.1601 153.384 58.8021 153.177 59.2401 152.763C59.6841 152.343 59.9061 151.8 59.9061 151.134C59.9061 150.45 59.6931 149.907 59.2671 149.505C58.8471 149.103 58.2321 148.902 57.4221 148.902H54.8841V153.384ZM64.4836 159V147.696H71.4496V148.902H65.8876V152.7H71.1256V153.906H65.8876V157.776H71.4496V159H64.4836ZM77.1705 148.902V147.696H85.9725V148.902H81.9495L82.2645 148.578V159H80.8605V148.578L81.1755 148.902H77.1705ZM91.8941 159.216C90.9581 159.216 90.1211 159 89.3831 158.568C88.6451 158.136 88.0631 157.488 87.6371 156.624C87.2111 155.754 86.9981 154.668 86.9981 153.366C86.9981 152.046 87.2111 150.954 87.6371 150.09C88.0631 149.22 88.6451 148.572 89.3831 148.146C90.1211 147.714 90.9581 147.498 91.8941 147.498C92.8301 147.498 93.6671 147.714 94.4051 148.146C95.1431 148.578 95.7251 149.229 96.1511 150.099C96.5771 150.969 96.7901 152.058 96.7901 153.366C96.7901 154.68 96.5771 155.772 96.1511 156.642C95.7251 157.506 95.1431 158.151 94.4051 158.577C93.6671 159.003 92.8301 159.216 91.8941 159.216ZM91.8941 157.92C92.9561 157.92 93.7931 157.533 94.4051 156.759C95.0231 155.985 95.3321 154.848 95.3321 153.348C95.3321 151.878 95.0231 150.747 94.4051 149.955C93.7931 149.157 92.9561 148.758 91.8941 148.758C90.8441 148.758 90.0071 149.157 89.3831 149.955C88.7651 150.753 88.4561 151.89 88.4561 153.366C88.4561 154.86 88.7651 155.994 89.3831 156.768C90.0071 157.536 90.8441 157.92 91.8941 157.92ZM103.495 159.216C102.595 159.216 101.776 158.982 101.038 158.514C100.3 158.046 99.7122 157.383 99.2742 156.525C98.8362 155.667 98.6172 154.65 98.6172 153.474C98.6172 152.496 98.7582 151.635 99.0402 150.891C99.3222 150.147 99.7092 149.523 100.201 149.019C100.693 148.515 101.257 148.137 101.893 147.885C102.535 147.627 103.213 147.498 103.927 147.498C104.809 147.498 105.583 147.681 106.249 148.047C106.915 148.407 107.485 148.98 107.959 149.766L106.627 150.234C106.225 149.736 105.793 149.37 105.331 149.136C104.875 148.896 104.389 148.776 103.873 148.776C103.195 148.776 102.571 148.965 102.001 149.343C101.431 149.721 100.972 150.261 100.624 150.963C100.282 151.665 100.111 152.502 100.111 153.474C100.111 154.338 100.252 155.106 100.534 155.778C100.816 156.444 101.215 156.969 101.731 157.353C102.253 157.731 102.871 157.92 103.585 157.92C104.131 157.92 104.62 157.794 105.052 157.542C105.49 157.29 105.835 156.912 106.087 156.408C106.339 155.898 106.465 155.256 106.465 154.482H106.897C106.897 155.442 106.783 156.276 106.555 156.984C106.327 157.692 105.961 158.241 105.457 158.631C104.959 159.021 104.305 159.216 103.495 159.216ZM106.717 159L106.465 156.336V154.446L103.621 154.356V153.402H107.833V159H106.717ZM111.083 159V147.696H118.049V148.902H112.487V152.7H117.725V153.906H112.487V157.776H118.049V159H111.083ZM119.499 148.902V147.696H128.301V148.902H124.278L124.593 148.578V159H123.189V148.578L123.504 148.902H119.499ZM130.226 147.696H131.63V152.682H137.228V147.696H138.614V159H137.228V153.888H131.63V159H130.226V147.696ZM142.249 159V147.696H149.215V148.902H143.653V152.7H148.891V153.906H143.653V157.776H149.215V159H142.249ZM152.375 159V147.696H156.317C157.607 147.696 158.582 148.005 159.242 148.623C159.908 149.235 160.241 150.042 160.241 151.044C160.241 152.034 159.908 152.838 159.242 153.456C158.582 154.068 157.607 154.374 156.317 154.374H153.779V159H152.375ZM158.711 159L155.471 153.87H157.001L160.529 159H158.711ZM153.779 153.384H156.209C157.055 153.384 157.697 153.177 158.135 152.763C158.579 152.343 158.801 151.8 158.801 151.134C158.801 150.45 158.588 149.907 158.162 149.505C157.742 149.103 157.127 148.902 156.317 148.902H153.779V153.384Z" fill="white"/>
</g>
<defs>
<clipPath id="clip0_52_18">
<rect width="295" height="164" fill="white"/>
</clipPath>
</defs>
</svg>
