<svg width="295" height="164" viewBox="0 0 295 164" fill="none" xmlns="http://www.w3.org/2000/svg">
<g clip-path="url(#clip0_52_18)">
<circle cx="253.482" cy="81.6932" r="38.5" transform="rotate(4.98941 253.482 81.6932)" fill="#6DCBD4"/>
<ellipse cx="151.707" cy="40.1844" rx="18.5" ry="19" transform="rotate(4.98941 151.707 40.1844)" fill="#874299"/>
<circle cx="227.364" cy="18.6829" r="15" transform="rotate(4.98941 227.364 18.6829)" fill="#C05AA2"/>
<circle cx="224.023" cy="97.1898" r="37" transform="rotate(4.98941 224.023 97.1898)" stroke="white" stroke-width="3"/>
<circle cx="144.789" cy="67.6869" r="28.5" transform="rotate(4.98941 144.789 67.6869)" stroke="white" stroke-width="3"/>
<circle cx="205.38" cy="23.2884" r="20" transform="rotate(4.98941 205.38 23.2884)" stroke="white" stroke-width="3"/>
<line x1="172.606" y1="78.2218" x2="188.835" y2="86.2215" stroke="white" stroke-width="3"/>
<line x1="210.331" y1="43.8483" x2="215.002" y2="61.3283" stroke="white" stroke-width="3"/>
<path d="M199.794 81.5232C199.794 81.5232 192.286 89.7952 195.187 103.205" stroke="white" stroke-width="2" stroke-linecap="round"/>
<path d="M208.209 8.62845C208.209 8.62845 203.239 6.82462 197.7 10.3627" stroke="white" stroke-width="2" stroke-linecap="round"/>
<path d="M196.771 109.007C196.771 109.007 197.79 114.131 203.337 118.19" stroke="white" stroke-width="2" stroke-linecap="round"/>
<path d="M123.295 60.2581C123.295 60.2581 121.21 63.4569 122.199 68.3275" stroke="white" stroke-width="2" stroke-linecap="round"/>
<path d="M12.684 137.341C10.92 137.341 9.303 137.026 7.833 136.396C6.363 135.752 5.18 134.807 4.284 133.561C3.388 132.315 2.926 130.775 2.898 128.941H6.09C6.09 130.173 6.391 131.188 6.993 131.986C7.595 132.77 8.393 133.358 9.387 133.75C10.381 134.128 11.466 134.317 12.642 134.317C13.916 134.317 15.022 134.114 15.96 133.708C16.898 133.302 17.619 132.77 18.123 132.112C18.641 131.44 18.9 130.705 18.9 129.907C18.9 128.787 18.557 127.884 17.871 127.198C17.185 126.498 16.17 125.931 14.826 125.497L10.164 123.859C7.98 123.075 6.328 122.179 5.208 121.171C4.088 120.163 3.528 118.749 3.528 116.929C3.528 114.885 4.312 113.219 5.88 111.931C7.462 110.643 9.702 109.999 12.6 109.999C15.288 109.999 17.388 110.622 18.9 111.868C20.412 113.1 21.28 114.759 21.504 116.845H18.27C18.06 115.627 17.486 114.682 16.548 114.01C15.624 113.324 14.308 112.981 12.6 112.981C10.864 112.981 9.513 113.366 8.547 114.136C7.581 114.906 7.098 115.879 7.098 117.055C7.098 118.021 7.399 118.791 8.001 119.365C8.617 119.925 9.576 120.429 10.878 120.877L16.338 122.767C18.228 123.397 19.719 124.279 20.811 125.413C21.917 126.547 22.47 128.017 22.47 129.823C22.47 131.223 22.092 132.49 21.336 133.624C20.594 134.758 19.495 135.661 18.039 136.333C16.583 137.005 14.798 137.341 12.684 137.341ZM36.6867 137.341C35.0767 137.341 33.5717 136.907 32.1717 136.039C30.7857 135.171 29.6657 133.946 28.8117 132.364C27.9577 130.782 27.5307 128.913 27.5307 126.757C27.5307 124.545 27.9577 122.655 28.8117 121.087C29.6657 119.519 30.7857 118.322 32.1717 117.496C33.5717 116.67 35.0767 116.257 36.6867 116.257C37.8207 116.257 38.8357 116.432 39.7317 116.782C40.6417 117.118 41.4327 117.587 42.1047 118.189C42.7767 118.791 43.3297 119.477 43.7637 120.247C44.2117 121.003 44.5407 121.801 44.7507 122.641L41.3907 122.935C41.0407 121.773 40.4527 120.856 39.6267 120.184C38.8147 119.498 37.8207 119.155 36.6447 119.155C35.6507 119.155 34.7127 119.442 33.8307 120.016C32.9627 120.576 32.2557 121.423 31.7097 122.557C31.1637 123.677 30.8907 125.077 30.8907 126.757C30.8907 128.311 31.1357 129.662 31.6257 130.81C32.1297 131.944 32.8157 132.826 33.6837 133.456C34.5517 134.086 35.5387 134.401 36.6447 134.401C38.1987 134.401 39.3747 134.023 40.1727 133.267C40.9847 132.497 41.3907 131.433 41.3907 130.075H44.7507C44.7507 131.475 44.4217 132.721 43.7637 133.813C43.1057 134.905 42.1677 135.766 40.9497 136.396C39.7457 137.026 38.3247 137.341 36.6867 137.341ZM53.1349 112.015C52.4629 112.015 51.9309 111.826 51.5389 111.448C51.1469 111.056 50.9509 110.545 50.9509 109.915C50.9509 109.299 51.1469 108.809 51.5389 108.445C51.9309 108.081 52.4629 107.899 53.1349 107.899C53.8069 107.899 54.3389 108.081 54.7309 108.445C55.1229 108.809 55.3189 109.299 55.3189 109.915C55.3189 110.545 55.1229 111.056 54.7309 111.448C54.3389 111.826 53.8069 112.015 53.1349 112.015ZM51.4969 136.837V116.719H54.7729V136.837H51.4969ZM70.7687 137.341C69.0327 137.341 67.4787 136.9 66.1067 136.018C64.7487 135.122 63.6707 133.883 62.8727 132.301C62.0887 130.719 61.6967 128.899 61.6967 126.841C61.6967 124.643 62.0887 122.753 62.8727 121.171C63.6567 119.589 64.7277 118.378 66.0857 117.538C67.4577 116.684 69.0187 116.257 70.7687 116.257C72.2947 116.257 73.5967 116.565 74.6747 117.181C75.7527 117.797 76.6207 118.63 77.2787 119.68C77.9367 120.73 78.3917 121.92 78.6437 123.25C78.9097 124.566 78.9867 125.931 78.8747 127.345H64.3427V125.329H76.7117L75.7457 125.959C75.7877 125.133 75.7387 124.307 75.5987 123.481C75.4727 122.655 75.2277 121.899 74.8637 121.213C74.4997 120.513 73.9887 119.953 73.3307 119.533C72.6727 119.113 71.8327 118.903 70.8107 118.903C69.5227 118.903 68.4447 119.232 67.5767 119.89C66.7087 120.548 66.0577 121.416 65.6237 122.494C65.1897 123.558 64.9727 124.713 64.9727 125.959V127.303C64.9727 128.703 65.1827 129.956 65.6027 131.062C66.0367 132.168 66.6807 133.043 67.5347 133.687C68.3887 134.331 69.4667 134.653 70.7687 134.653C72.0707 134.653 73.1417 134.338 73.9817 133.708C74.8217 133.078 75.3327 132.147 75.5147 130.915H78.9167C78.7067 132.245 78.2307 133.393 77.4887 134.359C76.7467 135.311 75.8017 136.046 74.6537 136.564C73.5057 137.082 72.2107 137.341 70.7687 137.341ZM99.6509 136.837V125.035C99.6509 123.117 99.1889 121.661 98.2649 120.667C97.3549 119.659 96.1089 119.155 94.5269 119.155C93.3229 119.155 92.2799 119.484 91.3979 120.142C90.5159 120.8 89.8369 121.745 89.3609 122.977C88.8849 124.195 88.6469 125.651 88.6469 127.345H87.3869C87.3869 125.007 87.6949 123.012 88.3109 121.36C88.9269 119.708 89.8229 118.448 90.9989 117.58C92.1889 116.698 93.6309 116.257 95.3249 116.257C96.9069 116.257 98.2579 116.614 99.3779 117.328C100.512 118.028 101.38 119.036 101.982 120.352C102.584 121.668 102.885 123.229 102.885 125.035V136.837H99.6509ZM85.3709 136.837V116.761H88.1849L88.6469 121.381V136.837H85.3709ZM119.875 137.341C117.551 137.341 115.549 136.76 113.869 135.598C112.189 134.422 110.894 132.798 109.984 130.726C109.074 128.64 108.619 126.225 108.619 123.481C108.619 120.555 109.109 118.091 110.089 116.089C111.083 114.087 112.427 112.575 114.121 111.553C115.829 110.517 117.747 109.999 119.875 109.999C122.689 109.999 124.95 110.706 126.658 112.12C128.38 113.52 129.563 115.347 130.207 117.601L126.679 118.315C126.133 116.677 125.258 115.375 124.054 114.409C122.864 113.429 121.471 112.939 119.875 112.939C118.489 112.939 117.208 113.338 116.032 114.136C114.87 114.92 113.932 116.096 113.218 117.664C112.504 119.232 112.147 121.171 112.147 123.481C112.147 125.581 112.427 127.45 112.987 129.088C113.561 130.726 114.415 132.014 115.549 132.952C116.697 133.89 118.139 134.359 119.875 134.359C121.961 134.359 123.613 133.799 124.831 132.679C126.063 131.559 126.679 130.089 126.679 128.269H130.249C130.249 130.159 129.815 131.783 128.947 133.141C128.079 134.485 126.861 135.521 125.293 136.249C123.739 136.977 121.933 137.341 119.875 137.341ZM138.324 112.015C137.652 112.015 137.12 111.826 136.728 111.448C136.336 111.056 136.14 110.545 136.14 109.915C136.14 109.299 136.336 108.809 136.728 108.445C137.12 108.081 137.652 107.899 138.324 107.899C138.996 107.899 139.528 108.081 139.92 108.445C140.312 108.809 140.508 109.299 140.508 109.915C140.508 110.545 140.312 111.056 139.92 111.448C139.528 111.826 138.996 112.015 138.324 112.015ZM136.686 136.837V116.719H139.962V136.837H136.686ZM155.16 137.341C154.068 137.341 153.088 137.131 152.22 136.711C151.352 136.291 150.666 135.661 150.162 134.821C149.658 133.981 149.406 132.931 149.406 131.671V111.175H152.64V131.587C152.64 133.659 153.606 134.695 155.538 134.695C156.112 134.695 156.665 134.632 157.197 134.506C157.743 134.38 158.352 134.191 159.024 133.939L159.486 136.291C158.772 136.599 158.058 136.851 157.344 137.047C156.644 137.243 155.916 137.341 155.16 137.341ZM146.172 119.029V116.761H158.982V119.029H146.172ZM161.459 116.761H165.113L171.665 133.981H170.909L175.991 116.761H179.351L171.791 140.869C171.161 142.885 170.321 144.439 169.271 145.531C168.221 146.623 166.877 147.169 165.239 147.169C164.357 147.169 163.517 147.043 162.719 146.791C161.935 146.539 161.123 146.175 160.283 145.699V142.675C161.025 143.263 161.739 143.683 162.425 143.935C163.125 144.187 163.853 144.313 164.609 144.313C165.449 144.313 166.149 144.047 166.709 143.515C167.283 142.983 167.759 142.297 168.137 141.457C168.515 140.631 168.837 139.763 169.103 138.853L169.691 136.837L161.459 116.761Z" fill="white"/>
<path d="M5.6 162.837V152.789H11.792V153.861H6.848V157.237H11.504V158.309H6.848V161.749H11.792V162.837H5.6ZM13.7684 162.837L17.3044 157.845L13.7364 152.789H15.2404L18.1364 156.885L20.7924 152.789H22.3124L18.8244 157.829L22.4404 162.837H20.9044L17.9924 158.821L15.2724 162.837H13.7684ZM24.834 162.837V152.789H28.066C29.17 152.789 30.0127 153.069 30.594 153.629C31.1807 154.184 31.474 154.938 31.474 155.893C31.474 156.837 31.1807 157.586 30.594 158.141C30.0127 158.69 29.17 158.965 28.066 158.965H26.098V162.837H24.834ZM26.098 157.877H28.066C28.7647 157.877 29.2927 157.698 29.65 157.341C30.0127 156.984 30.194 156.501 30.194 155.893C30.194 155.274 30.0127 154.781 29.65 154.413C29.2927 154.045 28.7647 153.861 28.066 153.861H26.098V157.877ZM34.9734 152.789V161.749H39.4534V162.837H33.7254V152.789H34.9734ZM44.7618 163.029C43.9298 163.029 43.1858 162.837 42.5298 162.453C41.8738 162.069 41.3564 161.493 40.9778 160.725C40.5991 159.952 40.4098 158.986 40.4098 157.829C40.4098 156.656 40.5991 155.685 40.9778 154.917C41.3564 154.144 41.8738 153.568 42.5298 153.189C43.1858 152.805 43.9298 152.613 44.7618 152.613C45.5938 152.613 46.3378 152.805 46.9938 153.189C47.6498 153.573 48.1671 154.152 48.5458 154.925C48.9244 155.698 49.1138 156.666 49.1138 157.829C49.1138 158.997 48.9244 159.968 48.5458 160.741C48.1671 161.509 47.6498 162.082 46.9938 162.461C46.3378 162.84 45.5938 163.029 44.7618 163.029ZM44.7618 161.877C45.7058 161.877 46.4498 161.533 46.9938 160.845C47.5431 160.157 47.8177 159.146 47.8177 157.813C47.8177 156.506 47.5431 155.501 46.9938 154.797C46.4498 154.088 45.7058 153.733 44.7618 153.733C43.8284 153.733 43.0844 154.088 42.5298 154.797C41.9804 155.506 41.7057 156.517 41.7057 157.829C41.7057 159.157 41.9804 160.165 42.5298 160.853C43.0844 161.536 43.8284 161.877 44.7618 161.877ZM51.5379 162.837V152.789H55.0419C56.1885 152.789 57.0552 153.064 57.6419 153.613C58.2339 154.157 58.5299 154.874 58.5299 155.765C58.5299 156.645 58.2339 157.36 57.6419 157.909C57.0552 158.453 56.1885 158.725 55.0419 158.725H52.7859V162.837H51.5379ZM57.1699 162.837L54.2899 158.277H55.6499L58.7859 162.837H57.1699ZM52.7859 157.845H54.9459C55.6979 157.845 56.2685 157.661 56.6579 157.293C57.0525 156.92 57.2499 156.437 57.2499 155.845C57.2499 155.237 57.0605 154.754 56.6819 154.397C56.3085 154.04 55.7619 153.861 55.0419 153.861H52.7859V157.845ZM61.3188 162.837V152.789H67.5108V153.861H62.5668V157.237H67.2228V158.309H62.5668V161.749H67.5108V162.837H61.3188ZM72.596 153.861V152.789H80.42V153.861H76.844L77.124 153.573V162.837H75.876V153.573L76.156 153.861H72.596ZM85.6836 163.029C84.8516 163.029 84.1076 162.837 83.4516 162.453C82.7956 162.069 82.2783 161.493 81.8996 160.725C81.521 159.952 81.3316 158.986 81.3316 157.829C81.3316 156.656 81.521 155.685 81.8996 154.917C82.2783 154.144 82.7956 153.568 83.4516 153.189C84.1076 152.805 84.8516 152.613 85.6836 152.613C86.5156 152.613 87.2596 152.805 87.9156 153.189C88.5716 153.573 89.089 154.152 89.4676 154.925C89.8463 155.698 90.0356 156.666 90.0356 157.829C90.0356 158.997 89.8463 159.968 89.4676 160.741C89.089 161.509 88.5716 162.082 87.9156 162.461C87.2596 162.84 86.5156 163.029 85.6836 163.029ZM85.6836 161.877C86.6276 161.877 87.3716 161.533 87.9156 160.845C88.465 160.157 88.7396 159.146 88.7396 157.813C88.7396 156.506 88.465 155.501 87.9156 154.797C87.3716 154.088 86.6276 153.733 85.6836 153.733C84.7503 153.733 84.0063 154.088 83.4516 154.797C82.9023 155.506 82.6276 156.517 82.6276 157.829C82.6276 159.157 82.9023 160.165 83.4516 160.853C84.0063 161.536 84.7503 161.877 85.6836 161.877ZM95.9958 163.029C95.1958 163.029 94.4678 162.821 93.8118 162.405C93.1558 161.989 92.6331 161.4 92.2438 160.637C91.8544 159.874 91.6598 158.97 91.6598 157.925C91.6598 157.056 91.7851 156.29 92.0358 155.629C92.2864 154.968 92.6304 154.413 93.0678 153.965C93.5051 153.517 94.0064 153.181 94.5718 152.957C95.1424 152.728 95.7451 152.613 96.3798 152.613C97.1638 152.613 97.8518 152.776 98.4438 153.101C99.0358 153.421 99.5424 153.93 99.9638 154.629L98.7798 155.045C98.4224 154.602 98.0384 154.277 97.6278 154.069C97.2224 153.856 96.7904 153.749 96.3318 153.749C95.7291 153.749 95.1744 153.917 94.6678 154.253C94.1611 154.589 93.7531 155.069 93.4438 155.693C93.1398 156.317 92.9878 157.061 92.9878 157.925C92.9878 158.693 93.1131 159.376 93.3638 159.973C93.6144 160.565 93.9691 161.032 94.4278 161.373C94.8918 161.709 95.4411 161.877 96.0758 161.877C96.5611 161.877 96.9958 161.765 97.3798 161.541C97.7691 161.317 98.0758 160.981 98.2998 160.533C98.5238 160.08 98.6358 159.509 98.6358 158.821H99.0198C99.0198 159.674 98.9184 160.416 98.7158 161.045C98.5131 161.674 98.1878 162.162 97.7398 162.509C97.2971 162.856 96.7158 163.029 95.9958 163.029ZM98.8598 162.837L98.6358 160.469V158.789L96.1078 158.709V157.861H99.8518V162.837H98.8598ZM102.741 162.837V152.789H108.933V153.861H103.989V157.237H108.645V158.309H103.989V161.749H108.933V162.837H102.741ZM110.221 153.861V152.789H118.045V153.861H114.469L114.749 153.573V162.837H113.501V153.573L113.781 153.861H110.221ZM119.757 152.789H121.005V157.221H125.981V152.789H127.213V162.837H125.981V158.293H121.005V162.837H119.757V152.789ZM130.444 162.837V152.789H136.636V153.861H131.692V157.237H136.348V158.309H131.692V161.749H136.636V162.837H130.444ZM139.444 162.837V152.789H142.948C144.095 152.789 144.961 153.064 145.548 153.613C146.14 154.157 146.436 154.874 146.436 155.765C146.436 156.645 146.14 157.36 145.548 157.909C144.961 158.453 144.095 158.725 142.948 158.725H140.692V162.837H139.444ZM145.076 162.837L142.196 158.277H143.556L146.692 162.837H145.076ZM140.692 157.845H142.852C143.604 157.845 144.175 157.661 144.564 157.293C144.959 156.92 145.156 156.437 145.156 155.845C145.156 155.237 144.967 154.754 144.588 154.397C144.215 154.04 143.668 153.861 142.948 153.861H140.692V157.845Z" fill="white"/>
</g>
<defs>
<clipPath id="clip0_52_18">
<rect width="295" height="164" fill="white"/>
</clipPath>
</defs>
</svg>
