<svg width="353" height="236" viewBox="0 0 353 236" fill="none" xmlns="http://www.w3.org/2000/svg">
<circle cx="220" cy="128" r="41" fill="#6DCBD4"/>
<circle cx="108" cy="93" r="20" fill="#874299"/>
<circle cx="186" cy="63" r="16" fill="#C05AA2"/>
<circle cx="190" cy="147" r="39.5" stroke="white" stroke-width="3"/>
<circle cx="103" cy="123" r="30.5" stroke="white" stroke-width="3"/>
<circle cx="163" cy="70" r="21.5" stroke="white" stroke-width="3"/>
<line x1="133.544" y1="131.602" x2="151.544" y2="138.602" stroke="white" stroke-width="3"/>
<line x1="170.41" y1="91.4881" x2="177" y2="109.642" stroke="white" stroke-width="3"/>
<path d="M162.5 132C162.5 132 155 141.5 159.5 155.5" stroke="white" stroke-width="2" stroke-linecap="round"/>
<path d="M164.979 54.1989C164.979 54.1989 159.527 52.7422 153.965 57.0187" stroke="white" stroke-width="2" stroke-linecap="round"/>
<path d="M162.135 162C162.135 162 163.694 167.354 169.969 171.156" stroke="white" stroke-width="2" stroke-linecap="round"/>
<path d="M79.4771 116.983C79.4771 116.983 77.5571 120.578 79.0609 125.666" stroke="white" stroke-width="2" stroke-linecap="round"/>
</svg>
